<?xml version="1.0" encoding="UTF-8"?>
<svg id="Layer_2" data-name="Layer 2" xmlns="http://www.w3.org/2000/svg" xmlns:xlink="http://www.w3.org/1999/xlink" viewBox="0 0 574.5 117.89">
  <defs>
    <style>
      .cls-1 {
        fill: url(#linear-gradient-2);
      }

      .cls-2 {
        fill: url(#linear-gradient-4);
      }

      .cls-3 {
        fill: url(#linear-gradient-3);
      }

      .cls-4 {
        fill: #0088b1;
      }

      .cls-5 {
        fill: url(#linear-gradient);
      }
    </style>
    <linearGradient id="linear-gradient" x1="0" y1="45.84" x2="55.62" y2="45.84" gradientUnits="userSpaceOnUse">
      <stop offset="0" stop-color="#31b0cd"/>
      <stop offset="1" stop-color="#21b685"/>
    </linearGradient>
    <linearGradient id="linear-gradient-2" x1="55.62" y1="45.84" x2="111.24" y2="45.84" gradientUnits="userSpaceOnUse">
      <stop offset="0" stop-color="#31b0cd"/>
      <stop offset="1" stop-color="#81d3eb"/>
    </linearGradient>
    <linearGradient id="linear-gradient-3" x1="55.62" y1="46.48" x2="55.62" y2="119.4" gradientUnits="userSpaceOnUse">
      <stop offset="0" stop-color="#0077c0"/>
      <stop offset="1" stop-color="#191057"/>
    </linearGradient>
    <linearGradient id="linear-gradient-4" x1="44.98" y1="14.35" x2="66.26" y2="14.35" xlink:href="#linear-gradient-2"/>
  </defs>
  <g id="Layer_1-2" data-name="Layer 1">
    <g>
      <g>
        <g>
          <path class="cls-4" d="M169.25,62.21c-.23-6.35-.47-14.03-.47-21.71h-.16c-1.72,6.74-3.92,14.26-5.96,20.45l-6.43,20.61h-9.33l-5.64-20.38c-1.72-6.27-3.45-13.79-4.78-20.69h-.16c-.23,7.13-.55,15.28-.86,21.87l-1.02,20.06h-11.05l3.37-52.82h15.91l5.17,17.63c1.72,6.11,3.29,12.7,4.47,18.89h.31c1.41-6.11,3.21-13.09,5.02-18.97l5.56-17.55h15.67l2.82,52.82h-11.6l-.86-20.22Z"/>
          <path class="cls-4" d="M222.3,60.1h-19.44v12.54h21.71v9.8h-33.62V29.61h32.52v9.8h-20.61v10.97h19.44v9.72Z"/>
          <path class="cls-4" d="M232.73,30.39c4.39-.71,10.11-1.18,16.07-1.18,10.11,0,16.69,1.88,21.71,5.64,5.49,4.08,8.93,10.58,8.93,19.91,0,10.11-3.68,17.08-8.7,21.39-5.56,4.62-14.11,6.82-24.45,6.82-6.19,0-10.66-.39-13.56-.78V30.39ZM244.64,73.42c1.02.24,2.74.24,4.15.24,10.89.08,18.03-5.88,18.03-18.5,0-10.97-6.43-16.77-16.77-16.77-2.59,0-4.39.23-5.41.47v34.56Z"/>
          <path class="cls-4" d="M299.26,29.61v52.82h-11.91V29.61h11.91Z"/>
          <path class="cls-4" d="M322.07,82.43l-16.93-52.82h13.09l6.43,22.34c1.8,6.35,3.45,12.3,4.7,18.89h.24c1.33-6.35,2.98-12.62,4.78-18.65l6.74-22.57h12.7l-17.79,52.82h-13.95Z"/>
          <path class="cls-4" d="M390.88,60.1h-19.44v12.54h21.71v9.8h-33.62V29.61h32.52v9.8h-20.61v10.97h19.44v9.72Z"/>
          <path class="cls-4" d="M401.3,30.32c3.84-.63,9.48-1.1,15.91-1.1,7.84,0,13.32,1.18,17.08,4.15,3.21,2.51,4.94,6.27,4.94,11.13,0,6.66-4.78,11.29-9.33,12.93v.24c3.68,1.49,5.72,4.94,7.05,9.8,1.65,6.03,3.21,12.93,4.23,14.97h-12.23c-.78-1.57-2.12-5.8-3.6-12.3-1.49-6.66-3.76-8.39-8.7-8.46h-3.53v20.77h-11.83V30.32ZM413.14,53.04h4.7c5.96,0,9.48-2.98,9.48-7.6s-3.29-7.29-8.78-7.29c-2.9,0-4.55.16-5.41.39v14.5Z"/>
          <path class="cls-4" d="M448.17,70.13c3.13,1.65,8.15,3.29,13.24,3.29,5.49,0,8.39-2.27,8.39-5.72s-2.51-5.17-8.86-7.37c-8.78-3.13-14.58-7.99-14.58-15.67,0-9.01,7.6-15.83,19.98-15.83,6.03,0,10.34,1.18,13.48,2.66l-2.67,9.56c-2.04-1.02-5.88-2.51-10.97-2.51s-7.68,2.43-7.68,5.09c0,3.37,2.9,4.86,9.8,7.45,9.33,3.45,13.64,8.31,13.64,15.75,0,8.86-6.74,16.38-21.24,16.38-6.04,0-11.99-1.65-14.97-3.29l2.43-9.8Z"/>
          <path class="cls-4" d="M502.4,68.87l-3.76,13.56h-12.3l16.07-52.82h15.67l16.46,52.82h-12.93l-4.08-13.56h-15.12ZM515.8,59.94l-3.29-11.21c-.94-3.13-1.88-7.05-2.66-10.19h-.16c-.78,3.13-1.57,7.13-2.43,10.19l-3.13,11.21h11.68Z"/>
          <path class="cls-4" d="M541.58,29.61h11.91v42.79h21v10.03h-32.92V29.61Z"/>
        </g>
        <g>
          <path class="cls-4" d="M185.22,110.33h-3.89l3.3-15.73h-5.54l.66-3.16h14.88l-.66,3.16h-5.46l-3.29,15.73Z"/>
          <path class="cls-4" d="M195.27,96.65h3.45l-.55,2.65c1.29-1.98,2.68-2.98,4.19-2.98.53,0,1.1.13,1.71.4l-1.42,3.03c-.33-.12-.69-.18-1.07-.18-.64,0-1.28.24-1.94.72-.66.48-1.17,1.12-1.54,1.93-.37.8-.73,2.08-1.09,3.82l-.9,4.29h-3.7l2.86-13.68Z"/>
          <path class="cls-4" d="M205.72,96.65h3.7l-1.69,8.1c-.21.97-.31,1.58-.31,1.82,0,.4.15.73.44,1.02s.67.43,1.12.43c.33,0,.65-.06.97-.19s.64-.31.98-.57c.33-.25.64-.54.9-.87.27-.33.52-.76.75-1.29.16-.39.34-1.04.53-1.93l1.37-6.52h3.7l-2.86,13.68h-3.45l.39-1.85c-1.51,1.45-3.16,2.18-4.93,2.18-1.13,0-2.01-.32-2.65-.97-.64-.64-.97-1.51-.97-2.59,0-.47.15-1.41.44-2.82l1.6-7.63Z"/>
          <path class="cls-4" d="M218.52,106.5l3.58-.57c.32.76.71,1.29,1.19,1.6.47.31,1.12.47,1.93.47s1.52-.19,2.02-.57c.35-.26.53-.57.53-.94,0-.25-.09-.47-.27-.67-.19-.19-.7-.42-1.53-.7-2.23-.74-3.62-1.32-4.15-1.75-.83-.67-1.25-1.55-1.25-2.63s.4-2.01,1.21-2.8c1.12-1.09,2.8-1.64,5.01-1.64,1.76,0,3.09.32,3.99.97.9.64,1.47,1.52,1.71,2.62l-3.42.59c-.18-.5-.47-.87-.88-1.12-.55-.33-1.21-.5-1.98-.5s-1.33.13-1.67.39c-.34.26-.51.55-.51.89s.17.63.52.85c.21.14.91.38,2.07.72,1.8.52,3.01,1.04,3.62,1.55.86.71,1.29,1.57,1.29,2.58,0,1.3-.54,2.42-1.64,3.38s-2.63,1.43-4.61,1.43-3.5-.36-4.58-1.09c-1.08-.73-1.81-1.75-2.2-3.06Z"/>
          <path class="cls-4" d="M234.6,99.39l.57-2.74h1.8l.45-2.19,4.24-2.55-.99,4.74h2.25l-.57,2.74h-2.27l-1.2,5.73c-.21,1.04-.32,1.63-.32,1.78,0,.28.09.5.27.66.18.16.51.24.98.24.16,0,.57-.03,1.22-.09l-.58,2.74c-.64.13-1.29.19-1.96.19-1.31,0-2.25-.25-2.85-.75s-.89-1.2-.89-2.09c0-.42.16-1.39.48-2.91l1.15-5.5h-1.79Z"/>
          <path class="cls-4" d="M258.49,101c0,1.06-.37,1.96-1.11,2.7s-1.64,1.11-2.69,1.11-1.96-.37-2.7-1.12c-.74-.75-1.11-1.64-1.11-2.69s.37-1.94,1.11-2.69c.74-.74,1.64-1.11,2.7-1.11s1.94.37,2.69,1.11c.74.74,1.11,1.64,1.11,2.69Z"/>
          <path class="cls-4" d="M274.61,110.33h-3.89l3.3-15.73h-5.54l.66-3.16h14.88l-.66,3.16h-5.46l-3.29,15.73Z"/>
          <path class="cls-4" d="M284.66,96.65h3.45l-.55,2.65c1.29-1.98,2.68-2.98,4.19-2.98.53,0,1.1.13,1.71.4l-1.42,3.03c-.33-.12-.69-.18-1.07-.18-.64,0-1.28.24-1.94.72-.66.48-1.17,1.12-1.54,1.93-.37.8-.73,2.08-1.09,3.82l-.9,4.29h-3.7l2.86-13.68Z"/>
          <path class="cls-4" d="M297.49,100.53l-3.61-.31c.41-1.22,1.13-2.17,2.16-2.86s2.39-1.03,4.08-1.03,3.06.35,3.9,1.06,1.26,1.57,1.26,2.6c0,.41-.04.85-.11,1.31-.07.46-.33,1.68-.77,3.66-.36,1.63-.54,2.77-.54,3.43,0,.58.1,1.23.31,1.95h-3.59c-.15-.5-.24-1.01-.27-1.55-.54.6-1.16,1.06-1.87,1.38-.7.32-1.41.48-2.13.48-1.13,0-2.07-.37-2.81-1.11-.74-.74-1.11-1.7-1.11-2.87,0-1.31.41-2.35,1.22-3.13s2.26-1.25,4.35-1.42c1.76-.15,2.94-.32,3.53-.53.15-.52.23-.93.23-1.24,0-.39-.16-.73-.48-.99-.32-.27-.79-.4-1.42-.4-.66,0-1.18.14-1.57.41-.38.27-.64.66-.78,1.15ZM301.01,103.95c-.22.06-.52.12-.89.17-1.86.22-3.07.55-3.63.98-.4.31-.61.73-.61,1.25,0,.43.15.79.46,1.09.31.3.72.44,1.22.44.56,0,1.08-.14,1.58-.41s.86-.62,1.11-1.04c.25-.43.46-1.09.65-1.99l.1-.49Z"/>
          <path class="cls-4" d="M309.86,96.65h3.5l-.36,1.78c.88-.76,1.69-1.29,2.45-1.62.76-.32,1.56-.48,2.4-.48,1.12,0,2.01.32,2.66.97.65.64.97,1.5.97,2.56,0,.48-.14,1.39-.43,2.73l-1.61,7.74h-3.7l1.62-7.77c.24-1.16.36-1.85.36-2.07,0-.47-.14-.84-.42-1.11-.28-.27-.67-.41-1.17-.41-.54,0-1.14.23-1.8.68-.66.46-1.18,1.06-1.56,1.8-.28.53-.58,1.62-.93,3.26l-1.17,5.62h-3.7l2.86-13.68Z"/>
          <path class="cls-4" d="M322.59,106.5l3.58-.57c.32.76.71,1.29,1.19,1.6.47.31,1.12.47,1.93.47s1.52-.19,2.02-.57c.35-.26.53-.57.53-.94,0-.25-.09-.47-.27-.67-.19-.19-.7-.42-1.53-.7-2.23-.74-3.62-1.32-4.15-1.75-.83-.67-1.25-1.55-1.25-2.63s.4-2.01,1.21-2.8c1.12-1.09,2.79-1.64,5.01-1.64,1.76,0,3.09.32,3.99.97.9.64,1.47,1.52,1.71,2.62l-3.41.59c-.18-.5-.47-.87-.88-1.12-.55-.33-1.21-.5-1.98-.5s-1.33.13-1.67.39c-.34.26-.51.55-.51.89s.17.63.51.85c.21.14.91.38,2.07.72,1.8.52,3.01,1.04,3.62,1.55.86.71,1.29,1.57,1.29,2.58,0,1.3-.55,2.42-1.64,3.38s-2.63,1.43-4.61,1.43-3.5-.36-4.58-1.09c-1.08-.73-1.81-1.75-2.2-3.06Z"/>
          <path class="cls-4" d="M340.48,96.65h3.5l-.3,1.4c.75-.62,1.45-1.06,2.1-1.33.65-.27,1.35-.4,2.1-.4,1.43,0,2.59.49,3.46,1.48.87.99,1.31,2.46,1.31,4.42,0,2.47-.75,4.55-2.25,6.25-1.29,1.45-2.81,2.18-4.57,2.18s-3.18-.73-4.11-2.2l-1.48,7.1h-3.7l3.94-18.9ZM342.71,104.49c0,1.07.26,1.89.78,2.48.52.59,1.13.88,1.84.88.61,0,1.2-.22,1.76-.66.57-.44,1.04-1.18,1.41-2.2s.56-1.98.56-2.85c0-1.02-.25-1.81-.73-2.35-.49-.54-1.11-.82-1.87-.82-.7,0-1.35.25-1.93.75-.58.5-1.03,1.24-1.35,2.22s-.48,1.83-.48,2.56Z"/>
          <path class="cls-4" d="M359.07,100.53l-3.61-.31c.41-1.22,1.13-2.17,2.16-2.86s2.39-1.03,4.08-1.03,3.06.35,3.9,1.06,1.26,1.57,1.26,2.6c0,.41-.04.85-.11,1.31-.07.46-.33,1.68-.77,3.66-.36,1.63-.54,2.77-.54,3.43,0,.58.1,1.23.31,1.95h-3.59c-.15-.5-.24-1.01-.27-1.55-.54.6-1.16,1.06-1.87,1.38-.7.32-1.41.48-2.13.48-1.13,0-2.07-.37-2.81-1.11-.74-.74-1.11-1.7-1.11-2.87,0-1.31.41-2.35,1.22-3.13s2.26-1.25,4.35-1.42c1.76-.15,2.94-.32,3.53-.53.15-.52.23-.93.23-1.24,0-.39-.16-.73-.48-.99-.32-.27-.79-.4-1.42-.4-.66,0-1.18.14-1.57.41-.38.27-.64.66-.78,1.15ZM362.59,103.95c-.22.06-.52.12-.89.17-1.86.22-3.07.55-3.63.98-.4.31-.61.73-.61,1.25,0,.43.15.79.46,1.09.31.3.72.44,1.22.44.56,0,1.08-.14,1.58-.41s.86-.62,1.11-1.04c.25-.43.46-1.09.65-1.99l.1-.49Z"/>
          <path class="cls-4" d="M371.18,96.65h3.45l-.55,2.65c1.29-1.98,2.68-2.98,4.19-2.98.53,0,1.1.13,1.71.4l-1.42,3.03c-.33-.12-.69-.18-1.07-.18-.64,0-1.28.24-1.94.72-.66.48-1.17,1.12-1.54,1.93-.37.8-.73,2.08-1.09,3.82l-.9,4.29h-3.7l2.86-13.68Z"/>
          <path class="cls-4" d="M392.12,104.64h-9.28c0,.15-.01.26-.01.33,0,.91.26,1.65.78,2.2.52.56,1.15.84,1.9.84,1.23,0,2.19-.64,2.87-1.91l3.31.55c-.64,1.33-1.5,2.33-2.58,3s-2.29,1-3.63,1c-1.84,0-3.33-.58-4.48-1.75-1.15-1.16-1.73-2.7-1.73-4.62s.52-3.54,1.56-5c1.42-1.98,3.44-2.96,6.07-2.96,1.67,0,3.01.52,3.99,1.55.99,1.04,1.48,2.48,1.48,4.35,0,.89-.09,1.7-.26,2.41ZM389,102.38c0-.16.01-.29.01-.37,0-1.01-.23-1.77-.68-2.28s-1.07-.76-1.83-.76-1.45.29-2.05.86c-.61.58-1.02,1.43-1.23,2.55h5.78Z"/>
          <path class="cls-4" d="M396.38,96.65h3.5l-.36,1.78c.88-.76,1.69-1.29,2.45-1.62.76-.32,1.56-.48,2.4-.48,1.12,0,2.01.32,2.66.97.65.64.97,1.5.97,2.56,0,.48-.14,1.39-.43,2.73l-1.61,7.74h-3.7l1.62-7.77c.24-1.16.36-1.85.36-2.07,0-.47-.14-.84-.42-1.11-.28-.27-.67-.41-1.17-.41-.54,0-1.14.23-1.8.68-.66.46-1.18,1.06-1.56,1.8-.28.53-.58,1.62-.93,3.26l-1.17,5.62h-3.7l2.86-13.68Z"/>
          <path class="cls-4" d="M418.86,105.18l3.59.58c-.59,1.6-1.47,2.81-2.63,3.65-1.16.83-2.5,1.25-4.03,1.25-1.74,0-3.13-.52-4.15-1.56-1.02-1.04-1.53-2.47-1.53-4.29,0-1.49.31-2.89.93-4.21.62-1.32,1.55-2.36,2.8-3.12,1.25-.76,2.61-1.14,4.1-1.14,1.61,0,2.9.42,3.87,1.26s1.5,1.95,1.62,3.32l-3.52.37c-.09-.76-.32-1.33-.7-1.69-.38-.36-.88-.54-1.5-.54-.71,0-1.38.27-2,.8-.62.53-1.09,1.33-1.42,2.39-.33,1.06-.5,2.05-.5,2.98,0,.81.2,1.43.59,1.87.39.44.89.66,1.48.66s1.16-.21,1.71-.64c.55-.43.98-1.07,1.29-1.93Z"/>
          <path class="cls-4" d="M425.41,96.65h3.68l.93,6.82c.23,1.75.36,2.98.39,3.68.48-1.4,1.14-2.88,1.98-4.43l3.27-6.07h3.92l-8.45,15.02c-.7,1.25-1.24,2.12-1.64,2.62-.4.5-.88.89-1.44,1.17-.56.28-1.24.43-2.03.43s-1.66-.14-2.64-.41l.32-2.76c.45.13.88.19,1.3.19,1.13,0,2.07-.86,2.79-2.58l-2.38-13.68Z"/>
          <path class="cls-4" d="M454.96,101c0,1.06-.37,1.96-1.12,2.7-.74.74-1.64,1.11-2.69,1.11s-1.96-.37-2.7-1.12c-.74-.75-1.11-1.64-1.11-2.69s.37-1.94,1.11-2.69c.74-.74,1.64-1.11,2.7-1.11s1.94.37,2.69,1.11c.74.74,1.12,1.64,1.12,2.69Z"/>
          <path class="cls-4" d="M476.54,103.53l3.92.59c-.76,2.12-1.91,3.74-3.44,4.86-1.53,1.12-3.32,1.68-5.37,1.68-2.31,0-4.12-.7-5.42-2.09-1.3-1.39-1.95-3.41-1.95-6.05,0-2.15.44-4.11,1.31-5.89s2.08-3.15,3.63-4.09,3.23-1.42,5.05-1.42c2.04,0,3.7.55,4.96,1.64,1.26,1.1,2,2.59,2.23,4.48l-3.72.36c-.21-1.1-.6-1.9-1.19-2.39-.59-.49-1.37-.74-2.35-.74-1.07,0-2.08.33-3.01.98-.93.65-1.68,1.67-2.24,3.06-.56,1.39-.84,2.77-.84,4.16,0,1.51.36,2.68,1.09,3.5.73.82,1.63,1.24,2.71,1.24,1,0,1.93-.33,2.76-.98.84-.65,1.46-1.62,1.88-2.9Z"/>
          <path class="cls-4" d="M487.11,100.53l-3.61-.31c.41-1.22,1.13-2.17,2.16-2.86s2.39-1.03,4.08-1.03,3.06.35,3.9,1.06,1.26,1.57,1.26,2.6c0,.41-.04.85-.11,1.31-.07.46-.33,1.68-.77,3.66-.36,1.63-.54,2.77-.54,3.43,0,.58.1,1.23.31,1.95h-3.59c-.15-.5-.24-1.01-.27-1.55-.54.6-1.16,1.06-1.87,1.38-.7.32-1.41.48-2.13.48-1.13,0-2.07-.37-2.81-1.11-.74-.74-1.11-1.7-1.11-2.87,0-1.31.41-2.35,1.22-3.13s2.26-1.25,4.35-1.42c1.76-.15,2.94-.32,3.53-.53.15-.52.23-.93.23-1.24,0-.39-.16-.73-.48-.99-.32-.27-.79-.4-1.42-.4-.66,0-1.18.14-1.57.41-.38.27-.64.66-.78,1.15ZM490.62,103.95c-.22.06-.52.12-.89.17-1.86.22-3.07.55-3.63.98-.4.31-.61.73-.61,1.25,0,.43.15.79.46,1.09.31.3.72.44,1.22.44.56,0,1.08-.14,1.58-.41s.86-.62,1.11-1.04c.25-.43.46-1.09.65-1.99l.1-.49Z"/>
          <path class="cls-4" d="M499.22,96.65h3.45l-.55,2.65c1.29-1.98,2.68-2.98,4.19-2.98.53,0,1.1.13,1.71.4l-1.42,3.03c-.33-.12-.69-.18-1.07-.18-.64,0-1.28.24-1.94.72-.66.48-1.17,1.12-1.54,1.93-.37.8-.73,2.08-1.09,3.82l-.9,4.29h-3.7l2.86-13.68Z"/>
          <path class="cls-4" d="M520.15,104.64h-9.28c0,.15-.01.26-.01.33,0,.91.26,1.65.78,2.2.52.56,1.15.84,1.9.84,1.23,0,2.19-.64,2.87-1.91l3.31.55c-.64,1.33-1.5,2.33-2.58,3s-2.29,1-3.63,1c-1.84,0-3.33-.58-4.48-1.75-1.15-1.16-1.73-2.7-1.73-4.62s.52-3.54,1.56-5c1.42-1.98,3.44-2.96,6.07-2.96,1.67,0,3.01.52,3.99,1.55.99,1.04,1.48,2.48,1.48,4.35,0,.89-.09,1.7-.26,2.41ZM517.04,102.38c0-.16.01-.29.01-.37,0-1.01-.23-1.77-.68-2.28s-1.07-.76-1.83-.76-1.45.29-2.05.86c-.61.58-1.02,1.43-1.23,2.55h5.78Z"/>
        </g>
      </g>
      <g>
        <g>
          <path class="cls-5" d="M55.62,41.73C39.75,30.08,20.69,22.7,0,21.18l28.37,49.32c7.29-11.21,16.56-20.92,27.26-28.77Z"/>
          <path class="cls-1" d="M82.88,70.5l28.37-49.32c-20.69,1.52-39.75,8.9-55.62,20.55,10.7,7.85,19.97,17.57,27.26,28.77Z"/>
          <path class="cls-3" d="M28.37,70.5l27.26,47.39,27.26-47.39c-7.29-11.21-16.56-20.92-27.26-28.77-10.7,7.85-19.97,17.57-27.26,28.77Z"/>
        </g>
        <ellipse class="cls-2" cx="55.62" cy="14.35" rx="10.64" ry="14.35"/>
      </g>
    </g>
  </g>
</svg>